{
  "accessors": [
    {
      "bufferView": 0,
      "componentType": 5126,
      "count": 144,
      "type": "VEC3",
      "max": [
        0.949999988079071,
        0.029789907857775688,
        0.949999988079071
      ],
      "min": [
        -0.949999988079071,
        0.029789907857775688,
        -0.949999988079071
      ]
    },
    {
      "bufferView": 1,
      "componentType": 5126,
      "count": 144,
      "type": "VEC3",
      "max": [
        0.0,
        1.0,
        0.0
      ],
      "min": [
        0.0,
        1.0,
        0.0
      ]
    },
    {
      "bufferView": 2,
      "componentType": 5126,
      "count": 144,
      "type": "VEC4",
      "max": [
        0.0,
        0.0,
        1.0,
        -1.0
      ],
      "min": [
        0.0,
        0.0,
        1.0,
        -1.0
      ]
    },
    {
      "bufferView": 3,
      "componentType": 5126,
      "count": 144,
      "type": "VEC2",
      "max": [
        0.98560023307800293,
        0.98560023307800293
      ],
      "min": [
        0.014399779960513115,
        0.01439976692199707
      ]
    },
    {
      "bufferView": 4,
      "componentType": 5125,
      "count": 432,
      "type": "SCALAR",
      "max": [
        143.0
      ],
      "min": [
        0.0
      ]
    },
    {
      "bufferView": 5,
      "componentType": 5126,
      "count": 144,
      "type": "VEC3",
      "max": [
        1.0,
        0.0,
        1.0
      ],
      "min": [
        -1.0,
        0.0,
        -1.0
      ]
    },
    {
      "bufferView": 6,
      "componentType": 5126,
      "count": 144,
      "type": "VEC3",
      "max": [
        0.0,
        1.0,
        0.0
      ],
      "min": [
        0.0,
        1.0,
        0.0
      ]
    },
    {
      "bufferView": 7,
      "componentType": 5126,
      "count": 144,
      "type": "VEC4",
      "max": [
        0.0,
        0.0,
        1.0,
        -1.0
      ],
      "min": [
        0.0,
        0.0,
        1.0,
        -1.0
      ]
    },
    {
      "bufferView": 8,
      "componentType": 5126,
      "count": 144,
      "type": "VEC2",
      "max": [
        0.98560023307800293,
        0.98560023307800293
      ],
      "min": [
        0.014399779960513115,
        0.01439976692199707
      ]
    },
    {
      "bufferView": 9,
      "componentType": 5125,
      "count": 432,
      "type": "SCALAR",
      "max": [
        143.0
      ],
      "min": [
        0.0
      ]
    }
  ],
  "asset": {
    "generator": "UnityGLTF (2018.1.6f1)",
    "version": "2.0"
  },
  "buffers": [
    {
      "uri": "Unity2Skfb.bin",
      "byteLength": 17280
    }
  ],
  "bufferViews": [
    {
      "buffer": 0,
      "byteLength": 1728
    },
    {
      "buffer": 0,
      "byteOffset": 1728,
      "byteLength": 1728
    },
    {
      "buffer": 0,
      "byteOffset": 3456,
      "byteLength": 2304
    },
    {
      "buffer": 0,
      "byteOffset": 5760,
      "byteLength": 1152
    },
    {
      "buffer": 0,
      "byteOffset": 6912,
      "byteLength": 1728
    },
    {
      "buffer": 0,
      "byteOffset": 8640,
      "byteLength": 1728
    },
    {
      "buffer": 0,
      "byteOffset": 10368,
      "byteLength": 1728
    },
    {
      "buffer": 0,
      "byteOffset": 12096,
      "byteLength": 2304
    },
    {
      "buffer": 0,
      "byteOffset": 14400,
      "byteLength": 1152
    },
    {
      "buffer": 0,
      "byteOffset": 15552,
      "byteLength": 1728
    }
  ],
  "images": [
    {
      "uri": "13892_circle_effect_emission.jpg",
      "name": "circle_effect_emission"
    }
  ],
  "materials": [
    {
      "pbrMetallicRoughness": {
        "baseColorTexture": {
          "index": 0
        },
        "metallicFactor": 0.0,
        "roughnessFactor": 0.0
      },
      "emissiveFactor": [
        1.0,
        1.0,
        1.0
      ],
      "name": "circle_effect_material"
    }
  ],
  "meshes": [
    {
      "primitives": [
        {
          "attributes": {
            "POSITION": 0,
            "NORMAL": 1,
            "TANGENT": 2,
            "TEXCOORD_0": 3
          },
          "indices": 4,
          "material": 0
        }
      ],
      "name": "circle_effect01"
    },
    {
      "primitives": [
        {
          "attributes": {
            "POSITION": 5,
            "NORMAL": 6,
            "TANGENT": 7,
            "TEXCOORD_0": 8
          },
          "indices": 9,
          "material": 0
        }
      ],
      "name": "circle_effect02"
    }
  ],
  "nodes": [
    {
      "rotation": [
        0.2513092,
        0.0,
        0.0,
        -0.9679069
      ],
      "translation": [
        0.0,
        1.633,
        3.147
      ],
      "name": "Main Camera"
    },
    {
      "rotation": [
        0.408217877,
        -0.234569684,
        -0.109381631,
        -0.8754261
      ],
      "scale": [
        1.0,
        1.0,
        0.99999994
      ],
      "translation": [
        0.0,
        3.0,
        0.0
      ],
      "name": "Directional Light"
    },
    {
      "children": [
        3,
        4
      ],
      "rotation": [
        0.0,
        0.7071068,
        0.0,
        -0.7071068
      ],
      "scale": [
        1.00000024,
        1.0,
        1.00000024
      ],
      "name": "circle_effect"
    },
    {
      "mesh": 0,
      "rotation": [
        0.0,
        0.0,
        0.0,
        -1.0
      ],
      "name": "circle_effect01"
    },
    {
      "mesh": 1,
      "rotation": [
        0.0,
        0.0,
        0.0,
        -1.0
      ],
      "name": "circle_effect02"
    }
  ],
  "samplers": [
    {
      "minFilter": 9729
    }
  ],
  "scene": 0,
  "scenes": [
    {
      "nodes": [
        0,
        1,
        2
      ],
      "name": "Unity2Skfb"
    }
  ],
  "textures": [
    {
      "sampler": 0,
      "source": 0,
      "name": "circle_effect_emission"
    }
  ]
}